
<svg width="910px" height="54px" viewBox="0 0 910 54" version="1.1" xmlns="http://www.w3.org/2000/svg" xmlns:xlink="http://www.w3.org/1999/xlink">
    <!-- Generator: Sketch 51.2 (57519) - http://www.bohemiancoding.com/sketch -->
    <desc>Created with Sketch.</desc>
    <defs></defs>
    <g id="Page-1" stroke="none" stroke-width="1" fill="none" fill-rule="evenodd">
        <g id="Homepage" transform="translate(-265.000000, -1007.000000)">
            <g id="Countries" transform="translate(265.000000, 780.000000)">
                <g id="Group-6" transform="translate(0.000000, 227.000000)">
                    <g id="Group-5">
                        <g id="icon/nigeria">
                            <g id="nigeria">
                                <ellipse id="Oval" fill="#F0F0F0" fill-rule="nonzero" cx="26.7616153" cy="27" rx="26.7616153" ry="27"></ellipse>
                                <g id="Group" transform="translate(0.000000, 1.714286)" fill="#6DA544" fill-rule="nonzero">
                                    <path d="M0,25.2857143 C0,36.8344659 7.26243335,46.679527 17.4532774,50.4746924 L17.4532774,0.0969460581 C7.26243335,3.8919016 0,13.7371725 0,25.2857143 Z" id="Shape"></path>
                                    <path d="M53.5232306,25.2857143 C53.5232306,13.7371725 46.2607972,3.8919016 36.0699532,0.0969460581 L36.0699532,50.4747973 C46.2607972,46.679527 53.5232306,36.8344659 53.5232306,25.2857143 Z" id="Shape"></path>
                                </g>
                            </g>
                        </g>
                        <g id="icon/southafrica" transform="translate(107.000000, 0.000000)">
                            <g id="south-africa" transform="translate(0.046461, 0.000000)">
                                <ellipse id="Oval" fill="#F0F0F0" fill-rule="nonzero" cx="26.7616153" cy="27" rx="26.7616153" ry="27"></ellipse>
                                <path d="M7.76204496,46.5 C-2.58734832,35.9375104 -2.58734832,18.8124896 7.76204496,8.25 C7.76132032,8.25116216 23.0447243,27.375 23.0447243,27.375 L7.76204496,46.5 Z" id="Shape" fill="#000000" fill-rule="nonzero"></path>
                                <path d="M23.7881025,27.0007942 L3.86091177,13.5 C3.24309873,14.576679 2.69827402,15.7004832 2.23013461,16.863682 L12.3184756,27.0009001 L2.23045149,37.1386478 C2.69816839,38.3009994 3.24246496,39.4240623 3.8598555,40.5 L23.7881025,27.0007942 Z" id="Shape" fill="#FFDA44" fill-rule="nonzero"></path>
                                <path d="M53.2974618,23.8471623 L23.3723175,23.8471623 L7.99212,8.25 C6.33474598,9.93074281 4.89480594,11.8315628 3.71793286,13.9056552 L16.9743204,27.3750528 L3.71689101,40.84276 C4.89376409,42.9173807 6.33432924,44.8188346 7.99212,46.5 L23.3723175,30.9029434 L53.2974618,30.9029434 C53.445717,29.7481459 53.5232306,28.5707384 53.5232306,27.3750528 C53.5232306,26.1793672 53.445717,25.0019598 53.2974618,23.8471623 Z" id="Shape" fill="#6DA544" fill-rule="nonzero"></path>
                                <path d="M10.4072948,48.3361815 C14.9457211,51.8873185 20.6267176,54 26.7933171,54 C39.2281782,54 49.6915063,45.41475 52.7798524,33.75 L24.736207,33.75 L10.4072948,48.3361815 Z" id="Shape" fill="#0052B4" fill-rule="nonzero"></path>
                                <path d="M52.7798524,20.25 C49.6915063,8.58525 39.2281782,0 26.7933171,0 C20.6267176,0 14.9457211,2.11268147 10.4072948,5.66381853 L24.7361018,20.25 L52.7798524,20.25 Z" id="Shape" fill="#D80027" fill-rule="nonzero"></path>
                            </g>
                        </g>
                        <g id="icon/ghana" transform="translate(214.000000, 0.000000)">
                            <g id="ghana" transform="translate(0.092922, 0.000000)">
                                <path d="M0,27.4655172 C0,30.8124512 0.588860074,34.0185133 1.66455156,36.9826992 L26.7616153,38.1724138 L51.858679,36.9828061 C52.934475,34.0185133 53.5232306,30.8124512 53.5232306,27.4655172 C53.5232306,24.1185833 52.934475,20.9125212 51.858679,17.9483352 L26.7616153,16.7586207 L1.66455156,17.9482284 C0.588860074,20.9125212 0,24.1185833 0,27.4655172 Z" id="Shape" fill="#FFDA44" fill-rule="nonzero"></path>
                                <path d="M26.7615634,0 C15.338054,0 5.59956707,7.36079185 1.84562864,17.6896552 L51.6776019,17.6896552 C47.9235597,7.36079185 38.1850727,0 26.7615634,0 Z" id="Shape" fill="#D80027" fill-rule="nonzero"></path>
                                <path d="M51.6776019,36.3103448 L1.84562864,36.3103448 C5.59957489,46.6391022 15.3380821,54 26.7616153,54 C38.1851484,54 47.9236557,46.6391022 51.6776019,36.3103448 Z" id="Shape" fill="#496E2D" fill-rule="nonzero"></path>
                                <polygon id="Shape" fill="#000000" fill-rule="nonzero" points="26.3000011 17.6896552 28.5871763 24.8018331 35.9897585 24.8018331 30.0013957 29.1978533 32.2885709 36.3103448 26.3000011 31.9146383 20.3114314 36.3103448 22.5990205 29.1978533 16.6106578 24.8018331 24.012826 24.8018331"></polygon>
                            </g>
                        </g>
                        <g id="icon/ivory-coast" transform="translate(321.000000, 0.000000)">
                            <g id="ivory-coast" transform="translate(0.139383, 0.000000)">
                                <path d="M26.7616153,54 C30.0571453,54 33.2140723,53.406 36.1326275,52.3206211 L37.3040698,27 L36.1327327,1.67937891 C33.2140723,0.594105469 30.0571453,0 26.7616153,0 C23.4660853,0 20.3091583,0.594105469 17.3906031,1.67937891 L16.2191608,27 L17.3904978,52.3206211 C20.3091583,53.406 23.4660853,54 26.7616153,54 Z" id="Shape" fill="#F0F0F0" fill-rule="nonzero"></path>
                                <path d="M0,27 C0,38.6287725 7.42379949,48.5422453 17.8410769,52.3636364 L17.8410769,1.63636364 C7.42379949,5.45775465 0,15.3712275 0,27 Z" id="Shape" fill="#FF9811" fill-rule="nonzero"></path>
                                <path d="M35.6821537,1.63636364 L35.6821537,52.3636364 C46.0994311,48.5421477 53.5232306,38.6286955 53.5232306,26.9999472 C53.5232306,15.3711989 46.0994311,5.45774669 35.6821537,1.63636364 Z" id="Shape" fill="#6DA544" fill-rule="nonzero"></path>
                            </g>
                        </g>
                        <g id="icon/benin" transform="translate(428.000000, 0.000000)">
                            <g id="benin" transform="translate(0.185845, 0.000000)">
                                <path d="M17.4532774,24.6521602 L19.780388,53.0698711 C22.0063062,53.6751562 24.3460659,54 26.7616153,54 C41.5415536,54 53.5232306,41.9115937 53.5232306,27 L17.4532774,24.6521602 Z" id="Shape" fill="#D80027" fill-rule="nonzero"></path>
                                <path d="M17.4532774,27 L19.7802834,0.930128906 C22.0063062,0.32484375 24.3460659,0 26.7616153,0 C41.5415536,0 53.5232306,12.0884062 53.5232306,27 L17.4532774,27 Z" id="Shape" fill="#FFDA44" fill-rule="nonzero"></path>
                                <path d="M0,27 C0,39.4747383 8.38610758,49.9716211 19.7802834,53.0698711 L19.7802834,0.930128906 C8.38610758,4.02837891 0,14.5252617 0,27 Z" id="Shape" fill="#6DA544" fill-rule="nonzero"></path>
                            </g>
                        </g>
                        <g id="icon/togo" transform="translate(535.000000, 0.000000)">
                            <g id="togo" transform="translate(0.232306, 0.000000)">
                                <ellipse id="Oval" fill="#FFDA44" fill-rule="nonzero" cx="26.7616153" cy="27" rx="26.7616153" ry="27"></ellipse>
                                <g id="Group" transform="translate(5.331416, 0.000000)" fill="#496E2D" fill-rule="nonzero">
                                    <path d="M21.4301997,0 C21.4107558,0.0002109375 20.2666967,10.8 20.2666967,10.8 L42.8407464,10.8 C37.9583197,4.24226953 30.1854294,0 21.4301997,0 Z" id="Shape"></path>
                                    <path d="M21.4301997,54 C30.1854294,54 37.9583197,49.7577305 42.8406419,43.2 L0.0197575988,43.2 C4.90207979,49.7577305 12.67497,54 21.4301997,54 Z" id="Shape"></path>
                                    <path d="M47.6559555,21.6 L20.2666967,21.6 L21.4301997,32.4 L47.6559555,32.4 C48.0072017,30.6552305 48.191815,28.8493945 48.191815,27 C48.191815,25.1506055 48.0069926,23.3447695 47.6559555,21.6 Z" id="Shape"></path>
                                </g>
                                <path d="M26.7616153,32.4 C26.7616153,26.7652266 26.7616153,6.33909375 26.7616153,0 C11.9816769,0 0,12.0884063 0,27 C0,28.8493945 0.184822406,30.6552305 0.535859531,32.4 L26.7616153,32.4 Z" id="Shape" fill="#D80027" fill-rule="nonzero"></path>
                                <polygon id="Shape" fill="#F0F0F0" fill-rule="nonzero" points="14.7666621 12.9130664 16.4994767 18.2935547 22.1073941 18.2935547 17.5707776 21.6193008 19.3033831 27 14.7666621 23.6745703 10.2299411 27 11.9628602 21.6193008 7.4262437 18.2935547 13.033952 18.2935547"></polygon>
                            </g>
                        </g>
                    </g>
                    <g id="icon/burkina-faso" transform="translate(641.000000, 0.000000)">
                        <g id="burkina-faso" transform="translate(0.387755, 0.000000)">
                            <path d="M0,27 C0,12.0884062 12.0884063,0 27,0 C41.9115938,0 54,12.0884062 54,27 C52.8261328,27 27,30.521707 27,30.521707 L0,27 Z" id="Shape" fill="#D80027" fill-rule="nonzero"></path>
                            <path d="M54,27 C54,41.9115937 41.9115938,54 27,54 C12.0884063,54 0,41.9115937 0,27" id="Shape" fill="#6DA544" fill-rule="nonzero"></path>
                            <polygon id="Shape" fill="#FFDA44" fill-rule="nonzero" points="26.9998945 17.6087461 29.0393437 23.8860352 35.6403164 23.8860352 30.3002227 27.7658086 32.3397773 34.0435195 26.9998945 30.1638516 21.6599062 34.0435195 23.6997773 27.7658086 18.3595781 23.8860352 24.9602344 23.8860352"></polygon>
                        </g>
                    </g>
                    <g id="icon/senegal" transform="translate(855.000000, 0.000000)">
                        <g id="senegal" transform="translate(0.183673, 0.000000)">
                            <path d="M38.7390938,2.67911719 C35.1894375,0.96271875 31.2071484,0 27,0 C22.7928516,0 18.8105625,0.96271875 15.2609063,2.67911719 L12.9130664,27 L15.2609063,51.3208828 C18.8105625,53.0372812 22.7928516,54 27,54 C31.2071484,54 35.1894375,53.0372812 38.7390938,51.3208828 L41.0869336,27 L38.7390938,2.67911719 Z" id="Shape" fill="#FFDA44" fill-rule="nonzero"></path>
                            <g id="Group" transform="translate(0.000000, 2.636719)" fill="#496E2D" fill-rule="nonzero">
                                <polygon id="Shape" points="26.9997891 14.9720273 29.3306484 22.1460117 36.8746172 22.1460117 30.7717734 26.5802344 33.1027383 33.7545352 26.9997891 29.3206289 20.8968398 33.7545352 23.2282266 26.5802344 17.1253828 22.1460117 24.6688242 22.1460117"></polygon>
                                <path d="M15.2609063,0.0433476563 C6.22961719,4.41049219 0,13.6589414 0,24.3632813 C0,35.0676211 6.22961719,44.3160703 15.2609063,48.6832148 L15.2609063,0.0433476563 Z" id="Shape"></path>
                            </g>
                            <path d="M38.7390938,2.68006641 L38.7390938,51.3199336 C47.7703828,46.9527891 54,37.7043398 54,27 C54,16.2956602 47.7703828,7.04721094 38.7390938,2.68006641 Z" id="Shape" fill="#D80027" fill-rule="nonzero"></path>
                        </g>
                    </g>
                    <g id="icon/sierra-leone" transform="translate(748.000000, 0.000000)">
                        <g id="sierra-leone" transform="translate(0.285714, 0.000000)">
                            <path d="M52.3206211,36.3912539 C53.406,33.4662891 54,30.3026484 54,27 C54,23.6973516 53.406,20.5337109 52.3206211,17.6087461 L27,15.2609062 L1.67937891,17.6087461 C0.594,20.5337109 0,23.6973516 0,27 C0,30.3026484 0.594,33.4662891 1.67937891,36.3912539 L27,38.7390937 L52.3206211,36.3912539 Z" id="Shape" fill="#F0F0F0" fill-rule="nonzero"></path>
                            <path d="M27,54 C38.6089453,54 48.5057109,46.672875 52.3205156,36.3912539 L1.67927344,36.3912539 C5.49428906,46.672875 15.3908437,54 27,54 Z" id="Shape" fill="#338AF3" fill-rule="nonzero"></path>
                            <path d="M27,0 C15.3908438,0 5.49428906,7.327125 1.67927344,17.6087461 L52.3206211,17.6087461 C48.5057109,7.327125 38.6089453,0 27,0 Z" id="Shape" fill="#6DA544" fill-rule="nonzero"></path>
                        </g>
                    </g>
                </g>
            </g>
        </g>
    </g>
</svg>